<svg width="59" height="53" viewBox="0 0 59 53" fill="none" xmlns="http://www.w3.org/2000/svg">
<path fill-rule="evenodd" clip-rule="evenodd" d="M0 21.5C0 20.6716 0.671572 20 1.5 20H5.51555C6.12889 20 6.68046 20.3734 6.90825 20.9429L7.7311 23H32.2845C33.3456 23 34.0713 24.0718 33.6771 25.0571L29.2543 36.1142C28.7988 37.2531 27.6956 38 26.4689 38H12.3166L10.3088 41H28.5C29.3284 41 30 41.6716 30 42.5C30 43.3284 29.3284 44 28.5 44H7.5C6.94632 44 6.43767 43.695 6.17685 43.2066C5.91603 42.7183 5.94547 42.1259 6.25343 41.6657L9.82914 36.3228L4.5 23H1.5C0.671572 23 0 22.3284 0 21.5ZM12.5311 35H26.4689L30.0689 26H8.93111L12.5311 35Z" fill="#4D362D"/>
<path d="M11.25 48.875C11.25 50.3248 10.0748 51.5 8.625 51.5C7.17525 51.5 6 50.3248 6 48.875C6 47.4253 7.17525 46.25 8.625 46.25C10.0748 46.25 11.25 47.4253 11.25 48.875Z" fill="#4D362D"/>
<path d="M27.375 51.5C28.8248 51.5 30 50.3248 30 48.875C30 47.4253 28.8248 46.25 27.375 46.25C25.9253 46.25 24.75 47.4253 24.75 48.875C24.75 50.3248 25.9253 51.5 27.375 51.5Z" fill="#4D362D"/>
<circle cx="41.5" cy="17.5" r="17.5" fill="#5A7C86"/>
<path d="M36.9432 23V21.2273L41.0852 17.392C41.4375 17.0511 41.733 16.7443 41.9716 16.4716C42.214 16.1989 42.3977 15.9318 42.5227 15.6705C42.6477 15.4053 42.7102 15.1193 42.7102 14.8125C42.7102 14.4716 42.6326 14.178 42.4773 13.9318C42.322 13.6818 42.1098 13.4905 41.8409 13.358C41.572 13.2216 41.267 13.1534 40.9261 13.1534C40.5701 13.1534 40.2595 13.2254 39.9943 13.3693C39.7292 13.5133 39.5246 13.7197 39.3807 13.9886C39.2367 14.2576 39.1648 14.5777 39.1648 14.9489H36.8295C36.8295 14.1875 37.0019 13.5265 37.3466 12.9659C37.6913 12.4053 38.1742 11.9716 38.7955 11.6648C39.4167 11.358 40.1326 11.2045 40.9432 11.2045C41.7765 11.2045 42.5019 11.3523 43.1193 11.6477C43.7405 11.9394 44.2235 12.3447 44.5682 12.8636C44.9129 13.3826 45.0852 13.9773 45.0852 14.6477C45.0852 15.0871 44.9981 15.5208 44.8239 15.9489C44.6534 16.3769 44.3485 16.8523 43.9091 17.375C43.4697 17.8939 42.8504 18.517 42.0511 19.2443L40.3523 20.9091V20.9886H45.2386V23H36.9432Z" fill="white"/>
</svg>
