<svg width="24" height="24" viewBox="0 0 24 24" fill="none" xmlns="http://www.w3.org/2000/svg">
<path d="M12.0113 1.625C16.1033 1.625 19.9045 4.90179 19.9045 9.03571C19.9045 11.7682 18.9813 13.7001 17.4343 15.9524C15.7072 18.4667 13.502 20.8338 12.5163 21.8515C12.2319 22.1451 11.7676 22.1451 11.4832 21.8515C10.4974 20.8338 8.29227 18.4667 6.56521 15.9524C5.01812 13.7001 4.09497 11.7682 4.09497 9.03571C4.09497 4.90179 7.89612 1.625 11.9881 1.625" stroke="#2B1812" stroke-width="2" stroke-linecap="round"/>
<path d="M14.964 9.47223C14.964 11.1255 13.6412 12.4927 12.0044 12.4927C10.3676 12.4927 9.03546 11.1255 9.03546 9.47223C9.03546 7.819 10.3676 6.5653 12.0044 6.5653C13.6412 6.5653 14.964 7.819 14.964 9.47223Z" fill="white" stroke="#2B1812" stroke-width="2"/>
</svg>
